HIERARCHY
ROOT SimulationBone
{
	OFFSET 0.000000 0.000000 0.000000
	CHANNELS 6 Xposition Yposition Zposition Zrotation Yrotation Xrotation 
	JOINT Hips
	{
		OFFSET 0.000000 0.000000 0.000000
		CHANNELS 6 Xposition Yposition Zposition Zrotation Yrotation Xrotation 
		JOINT LeftUpLeg
		{
			OFFSET 0.103457 1.857831 10.548505
			CHANNELS 3 Zrotation Yrotation Xrotation
			JOINT LeftLeg
			{
				OFFSET 43.500000 -0.000038 -0.000004
				CHANNELS 3 Zrotation Yrotation Xrotation
				JOINT LeftFoot
				{
					OFFSET 42.372208 0.000027 -0.000004
					CHANNELS 3 Zrotation Yrotation Xrotation
					JOINT LeftToe
					{
						OFFSET 17.300005 0.000002 0.000002
						CHANNELS 3 Zrotation Yrotation Xrotation
						End Site
						{
							OFFSET 0.000000 0.000000 0.000000
						}
					}
				}
			}
		}
		JOINT RightUpLeg
		{
			OFFSET 0.103462 1.857825 -10.548504
			CHANNELS 3 Zrotation Yrotation Xrotation
			JOINT RightLeg
			{
				OFFSET 43.500042 -0.000027 0.000011
				CHANNELS 3 Zrotation Yrotation Xrotation
				JOINT RightFoot
				{
					OFFSET 42.372265 -0.000015 0.000012
					CHANNELS 3 Zrotation Yrotation Xrotation
					JOINT RightToe
					{
						OFFSET 17.299988 -0.000007 0.000010
						CHANNELS 3 Zrotation Yrotation Xrotation
						End Site
						{
							OFFSET 0.000000 0.000000 0.000000
						}
					}
				}
			}
		}
		JOINT Spine
		{
			OFFSET 6.901970 -2.603737 0.000000
			CHANNELS 3 Zrotation Yrotation Xrotation
			JOINT Spine1
			{
				OFFSET 12.588099 0.000007 0.000001
				CHANNELS 3 Zrotation Yrotation Xrotation
				JOINT Spine2
				{
					OFFSET 12.343201 0.000001 0.000000
					CHANNELS 3 Zrotation Yrotation Xrotation
					JOINT Neck
					{
						OFFSET 25.832897 -0.000008 -0.000001
						CHANNELS 3 Zrotation Yrotation Xrotation
						JOINT Head
						{
							OFFSET 11.766607 0.000021 0.000000
							CHANNELS 3 Zrotation Yrotation Xrotation
							End Site
							{
								OFFSET 0.000000 0.000000 0.000000
							}
						}
					}
					JOINT LeftShoulder
					{
						OFFSET 19.745903 -1.480373 6.000104
						CHANNELS 3 Zrotation Yrotation Xrotation
						JOINT LeftArm
						{
							OFFSET 11.284125 -0.000018 -0.000023
							CHANNELS 3 Zrotation Yrotation Xrotation
							JOINT LeftForeArm
							{
								OFFSET 33.000050 0.000010 0.000034
								CHANNELS 3 Zrotation Yrotation Xrotation
								JOINT LeftHand
								{
									OFFSET 25.200010 0.000001 -0.000001
									CHANNELS 3 Zrotation Yrotation Xrotation
									End Site
									{
										OFFSET 0.000000 0.000000 0.000000
									}
								}
							}
						}
					}
					JOINT RightShoulder
					{
						OFFSET 19.746090 -1.480381 -6.000076
						CHANNELS 3 Zrotation Yrotation Xrotation
						JOINT RightArm
						{
							OFFSET 11.284138 -0.000019 -0.000020
							CHANNELS 3 Zrotation Yrotation Xrotation
							JOINT RightForeArm
							{
								OFFSET 33.000092 0.000024 0.000022
								CHANNELS 3 Zrotation Yrotation Xrotation
								JOINT RightHand
								{
									OFFSET 25.199774 0.000133 0.000423
									CHANNELS 3 Zrotation Yrotation Xrotation
									End Site
									{
										OFFSET 0.000000 0.000000 0.000000
									}
								}
							}
						}
					}
				}
			}
		}
	}
}
MOTION
Frames: 13
Frame Time: 0.033333
61.239017 0.000000 130.980664 0.000000 64.703463 0.000000 -6.040802 89.429413 0.931866 86.352818 1.347710 175.095174 -179.162733 -7.713894 170.213765 -19.881892 -4.214620 -6.352758 94.611794 3.618569 -6.963360 21.454551 0.003089 0.000000 149.504030 5.257703 169.102643 -28.695838 4.539888 14.154180 75.617147 -6.626688 13.615530 21.454560 -0.003099 -0.000016 9.396072 -0.779066 0.826093 8.768887 -1.618469 1.590941 8.450791 -1.608700 1.600690 9.040975 -1.524876 6.512832 0.134151 -2.551238 6.781502 172.392609 -74.480392 6.427198 -20.789192 49.049959 24.970229 -32.298370 -14.093741 1.217572 13.290592 -14.556595 1.174102 127.317977 72.008007 -52.584698 -9.424021 -56.313988 -19.302378 -56.225048 15.678728 -2.038524 3.982135 9.724077 -35.265913 
62.839506 0.000000 129.614392 0.000000 65.268397 0.000000 -6.288047 89.147003 0.698697 85.736641 1.352302 174.561655 -178.119176 -8.083692 169.929465 -18.960791 -4.096811 -6.225710 95.085871 3.483265 -7.662974 21.454550 0.003101 -0.000001 149.158696 5.108596 167.136860 -22.434349 4.587139 14.028111 75.520056 -6.596338 13.416693 21.454555 -0.003109 -0.000018 9.472468 -0.713433 0.684303 8.924352 -1.477531 1.311660 8.606227 -1.469441 1.320564 8.973474 -1.659661 5.851607 0.073721 -2.437448 6.066238 171.822903 -74.592674 7.006999 -20.688436 48.908543 25.138081 -31.213736 -13.944853 1.185754 13.311714 -14.063994 1.894106 126.966878 72.087162 -52.932969 -9.480000 -56.728208 -18.701365 -57.108147 15.544071 -2.061254 3.641670 10.003951 -35.602621 
64.627688 0.000000 128.160563 0.000000 65.811888 0.000000 -6.349493 88.693550 0.484436 85.403015 1.402675 174.291941 -176.830483 -8.511199 170.024760 -18.455624 -3.815824 -6.193337 95.853174 3.402731 -8.671763 21.454550 0.003085 0.000001 149.085039 5.253205 166.399350 -17.340821 4.431613 13.205734 75.610235 -5.783778 14.292913 21.454560 -0.003111 -0.000017 9.577952 -0.571929 0.532111 9.138280 -1.184086 1.017434 8.820162 -1.177787 1.024580 9.108483 -1.657951 5.177435 -0.100714 -2.767309 5.464460 170.544400 -74.733799 8.311101 -20.432690 49.207172 25.369880 -30.819630 -13.971828 1.179634 13.300611 -13.638502 3.273102 126.729092 72.007269 -53.180884 -8.757087 -57.021530 -18.813522 -57.660990 15.660292 -2.089245 3.230024 10.523964 -35.373662 
66.579464 0.000000 126.621706 0.000000 66.318621 0.000000 -6.383265 88.208519 0.279219 85.092717 1.614843 174.019244 -175.386841 -9.154098 170.248872 -17.957592 -3.537376 -6.287248 96.559026 3.404082 -9.853344 21.454551 0.003102 0.000001 148.708805 4.844412 166.141510 -14.797914 4.262131 13.256829 75.086264 -5.594229 14.959441 21.454560 -0.003098 -0.000014 9.657625 -0.368013 0.449678 9.299697 -0.770991 0.868333 8.981599 -0.765607 0.872991 9.140852 -2.142364 4.429839 -0.143157 -2.485011 4.561371 169.775512 -74.905722 9.091912 -20.538138 49.714980 25.408966 -30.774251 -13.962081 1.178106 13.188901 -12.979005 3.868103 126.309527 72.258169 -53.582807 -8.239012 -57.365830 -18.988214 -57.420738 15.630184 -2.078431 2.774747 11.096852 -34.639523 
68.669448 0.000000 125.004057 0.000000 66.771277 0.000000 -6.450475 87.773399 0.125153 84.760939 2.082659 174.079747 -173.904785 -10.239703 170.025634 -17.405972 -3.188572 -5.991735 96.982546 3.121640 -11.184814 21.454550 0.003103 0.000001 147.936379 4.067904 168.286955 -15.942193 3.963946 12.867639 73.046763 -5.105052 14.776662 21.454560 -0.003116 -0.000022 9.683397 -0.092636 0.373360 9.353256 -0.215177 0.737991 9.035188 -0.210580 0.739287 9.372731 -2.375101 3.660774 -0.038388 -2.225543 3.691706 168.806800 -75.299127 10.067696 -20.637422 50.479842 25.423337 -31.204423 -13.981120 1.187907 12.981509 -12.432495 3.839205 126.797708 72.305038 -53.084661 -7.553808 -57.582907 -19.757523 -56.047839 15.877466 -2.045600 1.859118 11.996104 -34.378528 
70.876534 0.000000 123.319803 0.000000 67.161467 0.000000 -6.410966 87.381287 0.076347 84.696931 2.781388 174.307039 -172.019038 -11.695102 170.134043 -16.811659 -2.981317 -5.845457 96.901936 2.894684 -12.590864 21.454550 0.003095 -0.000001 147.465970 2.865398 170.450526 -19.131635 3.968952 12.955709 68.547335 -5.362992 12.567505 21.454560 -0.003106 -0.000018 9.736498 0.232590 0.312778 9.461462 0.438780 0.643513 9.143383 0.442786 0.640862 9.411587 -1.968556 2.928710 0.354536 -2.658605 3.109757 168.238296 -75.680504 10.633808 -20.572055 51.392556 25.061352 -32.343982 -14.140081 1.221516 12.851390 -12.523893 3.897003 127.244293 72.254939 -52.637157 -6.757895 -58.004343 -20.700288 -53.951791 16.290693 -1.999504 1.218984 13.471630 -33.816082 
73.174081 0.000000 121.578920 0.000000 67.486412 0.000000 -6.394975 87.154137 0.302103 84.475989 4.358625 174.723049 -170.595613 -14.420705 170.336476 -17.001265 -2.814279 -5.555137 96.252583 2.462025 -14.435072 21.454551 0.003086 -0.000001 147.003894 0.600497 171.955135 -23.022985 4.222859 13.144163 68.140433 -6.458231 9.538953 21.454558 -0.003112 -0.000018 9.774162 0.780922 0.306721 9.540879 1.533825 0.676814 9.222671 1.537999 0.667553 9.525632 -1.565485 2.287196 0.210179 -3.002079 2.616429 167.446199 -75.754393 11.440095 -20.503227 52.422436 23.903149 -33.695622 -14.535809 1.275995 12.460810 -12.737306 3.571594 128.248509 72.026537 -51.640782 -6.416349 -57.997547 -21.023474 -50.833628 16.398576 -1.900892 0.767776 15.741096 -32.011850 
75.534409 0.000000 119.784424 0.000000 67.745422 0.000000 -6.134514 86.850952 0.778716 85.168005 5.778809 175.423519 -169.573038 -17.355992 169.828405 -19.902985 -2.301348 -4.720218 94.768410 1.488707 -16.403765 21.454557 0.003088 -0.000001 146.919241 -1.557788 175.090219 -28.765649 3.774403 12.301342 71.523309 -6.690166 7.433104 21.454555 -0.003107 -0.000017 10.076755 1.352886 0.135028 10.148003 2.688602 0.388341 9.829549 2.691038 0.372091 9.719172 -1.428181 1.964277 -0.365225 -3.303738 2.400831 166.290408 -75.900682 12.614491 -20.468957 54.311479 21.435003 -35.005208 -15.259180 1.352060 11.808716 -13.965396 2.774503 128.369512 71.808101 -51.537691 -7.691836 -57.640923 -20.651342 -46.678575 16.962304 -1.805512 2.009711 17.683556 -26.905867 
77.939020 0.000000 117.939961 0.000000 67.937834 0.000000 -5.717934 86.989433 1.303966 86.224863 7.049516 177.488190 -169.571153 -20.460409 170.835776 -23.787203 -1.785247 -3.985055 91.255945 0.373798 -17.013938 21.454550 0.003092 0.000002 148.866008 -2.579603 178.152917 -31.628181 4.092145 12.193892 74.717482 -7.136057 6.074042 21.454558 -0.003111 -0.000018 10.395479 1.950428 -0.370233 10.774847 3.926709 -0.557345 10.455952 3.923414 -0.581079 9.355791 -1.446034 1.818922 0.241281 -3.479170 2.259884 164.840386 -76.628206 14.062400 -20.100239 56.792070 19.481989 -37.076026 -15.892330 1.441955 12.005794 -15.692995 1.045703 128.601028 71.607847 -51.320884 -9.392325 -57.456105 -18.474678 -43.304246 17.465950 -1.738098 5.137179 16.875975 -21.893545 
80.378513 0.000000 116.054730 0.000000 68.069498 0.000000 -5.330682 87.277153 1.856661 86.942627 7.873043 -179.465223 -171.899524 -23.131102 172.151722 -29.264857 -0.574402 -3.180404 86.458023 -0.535594 -14.775023 21.454548 0.003093 0.000001 150.875395 -3.390594 -179.396421 -33.508051 4.213831 12.954302 77.552973 -7.974946 5.233005 21.454560 -0.003111 -0.000018 10.443313 2.463488 -0.882816 10.850605 4.998740 -1.531777 10.531303 4.989541 -1.561995 9.384787 -0.630099 1.187129 0.938100 -3.895120 1.838400 160.860517 -77.537926 18.073394 -20.005885 58.612360 20.007567 -39.046422 -16.284520 1.516755 12.608705 -16.458104 -0.365603 131.341573 71.878022 -48.518542 -9.668347 -57.690373 -16.093698 -41.362581 17.899107 -1.711646 7.589438 14.852948 -23.287313 
82.830966 0.000000 114.125362 0.000000 68.145482 0.000000 -4.864279 87.612938 2.323543 87.706219 8.002593 -176.985188 -175.298581 -24.405808 172.533925 -36.268888 1.790888 -3.007962 80.881283 -1.017079 -12.946671 21.454558 0.003086 0.000002 153.146911 -4.195104 -177.202182 -34.870332 3.743303 13.458254 80.367892 -8.435382 4.980550 21.454563 -0.003108 -0.000019 10.423000 2.774828 -1.114311 10.797651 5.641329 -1.966664 10.478066 5.629476 -2.000775 9.095060 0.114366 0.296172 1.279330 -3.893418 1.071952 158.264294 -78.488094 20.663515 -20.942601 59.645583 20.935334 -42.149162 -16.540918 1.616434 12.177904 -15.420194 1.212006 135.613734 71.436566 -44.217070 -7.663937 -56.754077 -15.182648 -40.669183 17.779544 -1.684841 7.858018 13.682633 -25.512645 
85.267386 0.000000 112.148168 0.000000 68.173794 0.000000 -4.120601 88.189484 2.740014 88.715125 7.230954 -175.144110 -178.730355 -23.812802 173.514249 -43.631617 3.746940 -5.256743 74.974987 0.864187 -9.480444 21.454551 0.003100 -0.000000 156.409474 -4.700196 -176.375306 -35.053767 3.517968 14.148551 82.656340 -9.018730 4.742983 21.454558 -0.003103 -0.000017 10.417957 2.817627 -1.194321 10.783274 5.734095 -2.122952 10.463676 5.721309 -2.157624 8.724840 0.553733 -0.501412 1.215623 -3.621549 0.307398 157.653033 -79.024599 21.254891 -21.296043 60.139795 20.814838 -46.896847 -16.437989 1.748286 10.301107 -13.550200 5.732698 139.223093 70.510140 -40.617940 -5.415576 -54.914444 -16.314974 -39.987926 17.679753 -1.659981 7.763378 13.243165 -24.991232 
87.660432 0.000000 110.127844 0.000000 68.166201 0.000000 -3.495424 88.718262 2.885259 89.816576 6.363634 -173.808568 178.196780 -22.155600 175.311299 -50.171838 4.688433 -8.744672 72.484659 4.281461 -5.767361 21.454555 0.003088 0.000001 159.898909 -5.033795 -175.900020 -34.779798 3.607612 14.648848 84.325946 -9.457561 4.451604 21.454558 -0.003114 -0.000019 10.410725 2.786747 -1.169794 10.770260 5.670094 -2.077107 10.450681 5.657587 -2.111396 8.418617 0.458798 -0.963674 1.665557 -3.223135 -0.263229 159.277143 -79.177493 19.598164 -21.200979 60.420673 20.355188 -51.851258 -16.092860 1.883952 8.341503 -11.726807 9.944399 140.842080 69.824471 -39.020679 -3.483807 -53.308868 -18.020238 -39.671569 17.702585 -1.653046 8.098695 12.284021 -24.309629 
